<svg width="58" height="58" viewBox="0 0 58 58" fill="none" xmlns="http://www.w3.org/2000/svg">
<g filter="url(#filter0_d_581_77)">
<rect x="4" width="50" height="50" rx="15" fill="#3B3B3B"/>
<g clip-path="url(#clip0_581_77)">
<path d="M32.4999 27H31.7099L31.4299 26.73C32.6299 25.33 33.2499 23.42 32.9099 21.39C32.4399 18.61 30.1199 16.39 27.3199 16.05C23.0899 15.53 19.5299 19.09 20.0499 23.32C20.3899 26.12 22.6099 28.44 25.3899 28.91C27.4199 29.25 29.3299 28.63 30.7299 27.43L30.9999 27.71V28.5L35.2499 32.75C35.6599 33.16 36.3299 33.16 36.7399 32.75C37.1499 32.34 37.1499 31.67 36.7399 31.26L32.4999 27ZM26.4999 27C24.0099 27 21.9999 24.99 21.9999 22.5C21.9999 20.01 24.0099 18 26.4999 18C28.9899 18 30.9999 20.01 30.9999 22.5C30.9999 24.99 28.9899 27 26.4999 27Z" fill="#21AA93"/>
</g>
</g>
<defs>
<filter id="filter0_d_581_77" x="0" y="0" width="58" height="58" filterUnits="userSpaceOnUse" color-interpolation-filters="sRGB">
<feFlood flood-opacity="0" result="BackgroundImageFix"/>
<feColorMatrix in="SourceAlpha" type="matrix" values="0 0 0 0 0 0 0 0 0 0 0 0 0 0 0 0 0 0 127 0" result="hardAlpha"/>
<feOffset dy="4"/>
<feGaussianBlur stdDeviation="2"/>
<feComposite in2="hardAlpha" operator="out"/>
<feColorMatrix type="matrix" values="0 0 0 0 0 0 0 0 0 0 0 0 0 0 0 0 0 0 0.25 0"/>
<feBlend mode="normal" in2="BackgroundImageFix" result="effect1_dropShadow_581_77"/>
<feBlend mode="normal" in="SourceGraphic" in2="effect1_dropShadow_581_77" result="shape"/>
</filter>
<clipPath id="clip0_581_77">
<rect width="24" height="24" fill="white" transform="translate(17 13)"/>
</clipPath>
</defs>
</svg>
